<mxfile host="Electron" agent="Mozilla/5.0 (Windows NT 10.0; Win64; x64) AppleWebKit/537.36 (KHTML, like Gecko) draw.io/24.7.17 Chrome/128.0.6613.36 Electron/32.0.1 Safari/537.36" version="24.7.17">
  <diagram name="Сторінка-1" id="XGjmd0kRr772XNoY4wEw">
    <mxGraphModel dx="954" dy="657" grid="1" gridSize="10" guides="1" tooltips="1" connect="1" arrows="1" fold="1" page="1" pageScale="1" pageWidth="827" pageHeight="1169" math="0" shadow="0">
      <root>
        <mxCell id="0" />
        <mxCell id="1" parent="0" />
        <mxCell id="fHCJ0BFmpyL0UQdWakwM-3" value="" style="edgeStyle=orthogonalEdgeStyle;rounded=0;orthogonalLoop=1;jettySize=auto;html=1;" parent="1" source="fHCJ0BFmpyL0UQdWakwM-1" target="fHCJ0BFmpyL0UQdWakwM-2" edge="1">
          <mxGeometry relative="1" as="geometry" />
        </mxCell>
        <mxCell id="fHCJ0BFmpyL0UQdWakwM-1" value="&lt;font style=&quot;font-size: 20px;&quot;&gt;start&lt;/font&gt;" style="ellipse;whiteSpace=wrap;html=1;" parent="1" vertex="1">
          <mxGeometry x="320" y="30" width="120" height="60" as="geometry" />
        </mxCell>
        <mxCell id="fHCJ0BFmpyL0UQdWakwM-5" value="" style="edgeStyle=orthogonalEdgeStyle;rounded=0;orthogonalLoop=1;jettySize=auto;html=1;" parent="1" source="fHCJ0BFmpyL0UQdWakwM-2" target="fHCJ0BFmpyL0UQdWakwM-4" edge="1">
          <mxGeometry relative="1" as="geometry" />
        </mxCell>
        <mxCell id="fHCJ0BFmpyL0UQdWakwM-2" value="&lt;div style=&quot;font-family: Consolas, &amp;quot;Courier New&amp;quot;, monospace; font-size: 20px; line-height: 19px; white-space: pre;&quot;&gt;&lt;div style=&quot;&quot;&gt;const double h_x = 0.5&lt;/div&gt;&lt;/div&gt;" style="whiteSpace=wrap;html=1;" parent="1" vertex="1">
          <mxGeometry x="250" y="192" width="260" height="60" as="geometry" />
        </mxCell>
        <mxCell id="fHCJ0BFmpyL0UQdWakwM-8" value="" style="edgeStyle=orthogonalEdgeStyle;rounded=0;orthogonalLoop=1;jettySize=auto;html=1;" parent="1" source="fHCJ0BFmpyL0UQdWakwM-4" target="fHCJ0BFmpyL0UQdWakwM-7" edge="1">
          <mxGeometry relative="1" as="geometry" />
        </mxCell>
        <mxCell id="fHCJ0BFmpyL0UQdWakwM-4" value="&lt;div style=&quot;font-family: Consolas, &amp;quot;Courier New&amp;quot;, monospace; font-size: 20px; line-height: 19px; white-space: pre;&quot;&gt;&lt;div style=&quot;&quot;&gt;double x = -2.5&lt;/div&gt;&lt;/div&gt;" style="whiteSpace=wrap;html=1;" parent="1" vertex="1">
          <mxGeometry x="285" y="332" width="190" height="60" as="geometry" />
        </mxCell>
        <mxCell id="fHCJ0BFmpyL0UQdWakwM-10" value="" style="edgeStyle=orthogonalEdgeStyle;rounded=0;orthogonalLoop=1;jettySize=auto;html=1;" parent="1" source="fHCJ0BFmpyL0UQdWakwM-7" target="fHCJ0BFmpyL0UQdWakwM-9" edge="1">
          <mxGeometry relative="1" as="geometry" />
        </mxCell>
        <mxCell id="fHCJ0BFmpyL0UQdWakwM-7" value="&lt;div style=&quot;font-family: Consolas, &amp;quot;Courier New&amp;quot;, monospace; font-size: 20px; line-height: 19px; white-space: pre;&quot;&gt;&lt;div style=&quot;&quot;&gt;double z&lt;/div&gt;&lt;/div&gt;" style="whiteSpace=wrap;html=1;" parent="1" vertex="1">
          <mxGeometry x="285" y="472" width="190" height="60" as="geometry" />
        </mxCell>
        <mxCell id="fHCJ0BFmpyL0UQdWakwM-13" value="" style="edgeStyle=orthogonalEdgeStyle;rounded=0;orthogonalLoop=1;jettySize=auto;html=1;" parent="1" source="fHCJ0BFmpyL0UQdWakwM-9" target="fHCJ0BFmpyL0UQdWakwM-12" edge="1">
          <mxGeometry relative="1" as="geometry" />
        </mxCell>
        <mxCell id="fHCJ0BFmpyL0UQdWakwM-9" value="&lt;div style=&quot;font-family: Consolas, &amp;quot;Courier New&amp;quot;, monospace; font-size: 20px; line-height: 19px; white-space: pre;&quot;&gt;&lt;div style=&quot;&quot;&gt;double y&lt;/div&gt;&lt;/div&gt;" style="whiteSpace=wrap;html=1;" parent="1" vertex="1">
          <mxGeometry x="285" y="612" width="190" height="60" as="geometry" />
        </mxCell>
        <mxCell id="fHCJ0BFmpyL0UQdWakwM-15" value="" style="edgeStyle=orthogonalEdgeStyle;rounded=0;orthogonalLoop=1;jettySize=auto;html=1;" parent="1" source="fHCJ0BFmpyL0UQdWakwM-12" target="fHCJ0BFmpyL0UQdWakwM-14" edge="1">
          <mxGeometry relative="1" as="geometry" />
        </mxCell>
        <mxCell id="fHCJ0BFmpyL0UQdWakwM-24" value="" style="edgeStyle=orthogonalEdgeStyle;rounded=0;orthogonalLoop=1;jettySize=auto;html=1;" parent="1" source="fHCJ0BFmpyL0UQdWakwM-12" target="fHCJ0BFmpyL0UQdWakwM-23" edge="1">
          <mxGeometry relative="1" as="geometry" />
        </mxCell>
        <mxCell id="fHCJ0BFmpyL0UQdWakwM-12" value="&lt;font style=&quot;font-size: 20px;&quot;&gt;x&amp;lt;2.1&lt;/font&gt;" style="rhombus;whiteSpace=wrap;html=1;" parent="1" vertex="1">
          <mxGeometry x="295" y="754" width="170" height="88" as="geometry" />
        </mxCell>
        <mxCell id="fHCJ0BFmpyL0UQdWakwM-17" value="" style="edgeStyle=orthogonalEdgeStyle;rounded=0;orthogonalLoop=1;jettySize=auto;html=1;" parent="1" source="fHCJ0BFmpyL0UQdWakwM-14" target="fHCJ0BFmpyL0UQdWakwM-16" edge="1">
          <mxGeometry relative="1" as="geometry" />
        </mxCell>
        <mxCell id="fHCJ0BFmpyL0UQdWakwM-14" value="&lt;font style=&quot;font-size: 20px;&quot;&gt;z=fabs(x)+pow(x,2)&lt;/font&gt;" style="whiteSpace=wrap;html=1;" parent="1" vertex="1">
          <mxGeometry x="270" y="936" width="220" height="64" as="geometry" />
        </mxCell>
        <mxCell id="fHCJ0BFmpyL0UQdWakwM-19" value="" style="edgeStyle=orthogonalEdgeStyle;rounded=0;orthogonalLoop=1;jettySize=auto;html=1;" parent="1" source="fHCJ0BFmpyL0UQdWakwM-16" target="fHCJ0BFmpyL0UQdWakwM-18" edge="1">
          <mxGeometry relative="1" as="geometry" />
        </mxCell>
        <mxCell id="fHCJ0BFmpyL0UQdWakwM-16" value="&lt;span style=&quot;font-size: 20px;&quot;&gt;y=z*(sin(pow(2+x,2))/(2+x))&lt;/span&gt;" style="whiteSpace=wrap;html=1;" parent="1" vertex="1">
          <mxGeometry x="230" y="1080" width="300" height="64" as="geometry" />
        </mxCell>
        <mxCell id="fHCJ0BFmpyL0UQdWakwM-21" value="" style="edgeStyle=orthogonalEdgeStyle;rounded=0;orthogonalLoop=1;jettySize=auto;html=1;" parent="1" source="fHCJ0BFmpyL0UQdWakwM-18" target="fHCJ0BFmpyL0UQdWakwM-20" edge="1">
          <mxGeometry relative="1" as="geometry" />
        </mxCell>
        <mxCell id="fHCJ0BFmpyL0UQdWakwM-18" value="&lt;div style=&quot;font-family: Consolas, &amp;quot;Courier New&amp;quot;, monospace; font-weight: normal; font-size: 20px; line-height: 19px; white-space: pre;&quot;&gt;&lt;div style=&quot;&quot;&gt;cout&amp;lt;&amp;lt;&quot;x=&quot;&amp;lt;&amp;lt;x&amp;lt;&amp;lt;&quot;\t z=&quot;&amp;lt;&amp;lt;z&amp;lt;&amp;lt;&quot;\t y=&quot;&amp;lt;&amp;lt;y&lt;/div&gt;&lt;/div&gt;" style="shape=parallelogram;perimeter=parallelogramPerimeter;whiteSpace=wrap;html=1;fixedSize=1;" parent="1" vertex="1">
          <mxGeometry x="150" y="1240" width="460" height="90" as="geometry" />
        </mxCell>
        <mxCell id="fHCJ0BFmpyL0UQdWakwM-22" style="edgeStyle=orthogonalEdgeStyle;rounded=0;orthogonalLoop=1;jettySize=auto;html=1;exitX=0;exitY=0.5;exitDx=0;exitDy=0;" parent="1" source="fHCJ0BFmpyL0UQdWakwM-20" edge="1">
          <mxGeometry relative="1" as="geometry">
            <mxPoint x="380" y="699.9999999999998" as="targetPoint" />
            <Array as="points">
              <mxPoint x="100" y="1455" />
              <mxPoint x="100" y="700" />
            </Array>
          </mxGeometry>
        </mxCell>
        <mxCell id="fHCJ0BFmpyL0UQdWakwM-20" value="&lt;div style=&quot;font-family: Consolas, &amp;quot;Courier New&amp;quot;, monospace; font-size: 20px; line-height: 19px; white-space: pre;&quot;&gt;x+=h_x;&lt;/div&gt;" style="whiteSpace=wrap;html=1;" parent="1" vertex="1">
          <mxGeometry x="310" y="1425" width="140" height="60" as="geometry" />
        </mxCell>
        <mxCell id="fHCJ0BFmpyL0UQdWakwM-23" value="&lt;font style=&quot;font-size: 20px;&quot;&gt;end&lt;/font&gt;" style="ellipse;whiteSpace=wrap;html=1;" parent="1" vertex="1">
          <mxGeometry x="610" y="880" width="80" height="80" as="geometry" />
        </mxCell>
        <mxCell id="6q48l-Oc1NQf3J5vtXUo-1" value="yes" style="text;html=1;align=center;verticalAlign=middle;resizable=0;points=[];autosize=1;strokeColor=none;fillColor=none;" vertex="1" parent="1">
          <mxGeometry x="370" y="858" width="40" height="30" as="geometry" />
        </mxCell>
        <mxCell id="6q48l-Oc1NQf3J5vtXUo-2" value="no" style="text;html=1;align=center;verticalAlign=middle;resizable=0;points=[];autosize=1;strokeColor=none;fillColor=none;" vertex="1" parent="1">
          <mxGeometry x="500" y="770" width="40" height="30" as="geometry" />
        </mxCell>
      </root>
    </mxGraphModel>
  </diagram>
</mxfile>
